<svg xmlns="http://www.w3.org/2000/svg" height="40" width="40"><path d="M5.208 30.25v-2q0-1.083.542-1.792.542-.708 1.583-1.166 2.084-.959 4.021-1.563 1.938-.604 4.979-.604 3.042 0 4.938.604t4.062 1.563q.959.458 1.521 1.166.563.709.563 1.792v2Zm25.375 0v-1.917q0-1.458-.541-2.625-.542-1.166-1.375-1.958 1.083.292 2.125.667 1.041.375 2 .833.875.5 1.458 1.292.583.791.583 1.791v1.917Zm-14.25-11.583q-1.875 0-3.145-1.25-1.271-1.25-1.271-3.125t1.271-3.125q1.27-1.25 3.145-1.25t3.105 1.25q1.229 1.25 1.229 3.125t-1.229 3.125q-1.23 1.25-3.105 1.25Zm10.25-4.375q0 1.833-1.229 3.104-1.229 1.271-3.146 1.271h.125q.75-.875 1.125-1.979.375-1.105.375-2.396 0-1.25-.416-2.334-.417-1.083-1.084-2.083-.041.042-.062.042h-.063q1.917 0 3.146 1.25 1.229 1.25 1.229 3.125Zm-20.416 15h20.291V28.25q0-.667-.354-1.146-.354-.479-1.229-1.021-1.958-1-3.875-1.479-1.917-.479-4.667-.479t-4.687.479q-1.938.479-3.854 1.479-.917.542-1.271 1.042-.354.5-.354 1.125Zm10.125-11.584q1.458 0 2.437-.979.979-.979.979-2.437 0-1.459-.979-2.438-.979-.979-2.437-.979-1.417 0-2.417.979-1 .979-1 2.438 0 1.458 1 2.437 1 .979 2.417.979Zm0 11.584Zm0-15Z"/></svg>